<?xml version="1.0" standalone="no"?>
<!DOCTYPE svg PUBLIC "-//W3C//DTD SVG 20010904//EN"
 "http://www.w3.org/TR/2001/REC-SVG-20010904/DTD/svg10.dtd">
<svg version="1.0" xmlns="http://www.w3.org/2000/svg"
 width="634.000000pt" height="634.000000pt" viewBox="0 0 634.000000 634.000000"
 preserveAspectRatio="xMidYMid meet">
<metadata>
Created by potrace 1.11, written by Peter Selinger 2001-2013
</metadata>
<g transform="translate(0.000000,634.000000) scale(0.100000,-0.100000)"
fill="#000000" stroke="none">
<path d="M0 3170 l0 -3170 3170 0 3170 0 0 3170 0 3170 -3170 0 -3170 0 0
-3170z m5139 2096 c8 -10 10 -290 9 -1042 l-3 -1029 -82 -3 -83 -3 0 966 0
965 -1872 -2 -1873 -3 -3 -1849 c-1 -1358 1 -1852 9 -1862 10 -12 206 -14
1160 -14 l1149 0 0 -85 0 -85 -1224 0 c-1107 0 -1224 2 -1230 16 -3 9 -6 917
-6 2018 0 1544 3 2005 12 2014 19 19 4021 17 4037 -2z"/>
</g>
</svg>
