<?xml version="1.0" encoding="utf-8"?>
<!-- Generator: Adobe Illustrator 16.0.0, SVG Export Plug-In . SVG Version: 6.00 Build 0)  -->
<!DOCTYPE svg PUBLIC "-//W3C//DTD SVG 1.1//EN" "http://www.w3.org/Graphics/SVG/1.1/DTD/svg11.dtd">
<svg version="1.1" id="Layer_1" xmlns="http://www.w3.org/2000/svg" xmlns:xlink="http://www.w3.org/1999/xlink" x="0px" y="0px"
	 width="50px" height="50px" viewBox="0 0 50 50" enable-background="new 0 0 50 50" xml:space="preserve">
<g>
	<path fill="none" d="M-10.83,25.308c0-11.281,0-22.564,0-33.846c0-0.063,0.005-0.127,0-0.189
		c-0.004-0.071-0.003-0.114,0.093-0.1c0.07,0.013,0.146,0.003,0.22,0.003c22.573,0,45.147,0,67.719,0
		c0.048,0,0.091,0.009,0.13-0.003c0.162-0.038,0.188,0.044,0.169,0.18c-0.007,0.041,0,0.083,0,0.123c0,22.577,0,45.15,0,67.727
		c0,0.304,0,0.304-0.299,0.304c-22.571,0-45.146,0-67.719,0c-0.312,0-0.312,0-0.312-0.321C-10.83,47.895-10.83,36.601-10.83,25.308z
		 M23.205,5.01c-1.21,0-2.422,0-3.635,0c-5.383,0-10.764,0-16.147,0c-0.451,0-0.506,0.058-0.517,0.507c0,0.031,0,0.062,0,0.093
		c0,13.136,0,26.274,0,39.411c0,0.102,0.017,0.209,0.029,0.314c0.019,0.194,0.124,0.276,0.313,0.271c0.21-0.005,0.422,0,0.631,0
		c7.575,0,15.149,0,22.727,0c0.231,0,0.461-0.016,0.691,0c0.187,0.012,0.262-0.039,0.252-0.242c-0.018-0.38,0-0.759-0.003-1.138
		c-0.004-0.39,0.062-0.348-0.353-0.35c-0.038,0-0.084,0-0.127,0c-7.436,0-14.873,0-22.311,0c-0.407,0-0.407,0-0.407-0.396
		c0-12.178,0-24.355,0-36.533c0-0.427-0.065-0.38,0.388-0.38c12.22,0,24.441,0,36.66,0c0.438,0,0.381-0.062,0.381,0.386
		c0,6.172,0,12.345,0,18.518c0,0.076,0.004,0.149,0,0.222c-0.014,0.134,0.029,0.189,0.175,0.188c0.45-0.008,0.905-0.005,1.356,0
		c0.115,0,0.184-0.026,0.17-0.157c-0.009-0.075,0-0.147,0-0.223c0-6.648,0-13.292,0-19.941c0-0.526-0.027-0.55-0.554-0.552
		c-0.027,0-0.062,0-0.095,0C36.289,5.01,29.745,5.01,23.205,5.01z M30.066,36.808c-0.014,0-0.03,0-0.042,0c0,2.74,0,5.481,0,8.215
		c0,0.399,0.064,0.468,0.456,0.46c1.786,0,3.577,0,5.368-0.002c0.24,0,0.484,0.045,0.718-0.068c0.037-0.02,0.11-0.014,0.152,0.01
		c0.196,0.089,0.409,0.086,0.617,0.086c0.55,0,1.099,0,1.642,0c0.451,0,0.582-0.122,0.666-0.564c0.09-0.451,0.195-0.901,0.26-1.361
		c0.063-0.431,0.251-0.833,0.275-1.28c0.015-0.229,0.071-0.459,0.144-0.678c0.13-0.42,0.191-0.856,0.269-1.284
		c0.119-0.667,0.27-1.334,0.384-2.006c0.14-0.839,0.36-1.663,0.484-2.503c0.109-0.672,0.293-1.339,0.356-2.017
		c0.014-0.129,0.055-0.26,0.22-0.26c0.183-0.003,0.187,0.124,0.201,0.26c0.064,0.543,0.208,1.073,0.311,1.603
		c0.136,0.692,0.305,1.377,0.4,2.075c0.055,0.414,0.185,0.816,0.278,1.216c0.123,0.523,0.219,1.06,0.371,1.584
		c0.117,0.407,0.165,0.833,0.255,1.253c0.217,1.01,0.438,2.013,0.594,3.032c0.034,0.237,0.054,0.479,0.143,0.706
		c0.062,0.154,0.157,0.232,0.331,0.228c0.611-0.005,1.223,0,1.836-0.003c0.288-0.002,0.374-0.143,0.312-0.433
		c-0.109-0.485-0.224-0.963-0.312-1.447c-0.124-0.724-0.298-1.44-0.438-2.159c-0.115-0.614-0.255-1.229-0.397-1.836
		c-0.114-0.512-0.196-1.036-0.314-1.545c-0.182-0.744-0.256-1.507-0.46-2.245c-0.109-0.381-0.137-0.788-0.249-1.166
		c-0.115-0.384-0.194-0.772-0.268-1.161c-0.111-0.562-0.221-1.125-0.344-1.687c-0.093-0.416-0.175-0.84-0.271-1.254
		c-0.145-0.647-0.262-1.297-0.37-1.946c-0.052-0.355-0.205-0.522-0.57-0.522c-0.663-0.005-1.33,0-1.989,0
		c-0.291,0-0.381,0.054-0.446,0.334c-0.133,0.561-0.252,1.126-0.381,1.688c-0.108,0.488-0.232,0.977-0.336,1.468
		c-0.078,0.381-0.106,0.77-0.208,1.146c-0.107,0.437-0.181,0.879-0.276,1.318c-0.092,0.431-0.184,0.859-0.268,1.293
		c-0.109,0.498-0.257,0.983-0.343,1.485c-0.141,0.784-0.375,1.553-0.503,2.339c-0.058,0.333-0.19,0.637-0.244,0.973
		c-0.117,0.691-0.255,1.384-0.401,2.068c-0.081,0.368-0.181,0.434-0.571,0.434c-1.316,0-2.636,0-3.951-0.008
		c-0.595,0-0.595,0-0.595-0.593c0.003-4.105,0.009-8.218,0.016-12.324c0-0.283-0.039-0.565,0.07-0.839
		c0.034-0.094,0.017-0.21,0.004-0.316c-0.045-0.347-0.184-0.46-0.54-0.46c-0.536,0.004-1.072,0.004-1.608,0
		c-0.284,0-0.437,0.146-0.437,0.446C30.066,31.311,30.066,34.06,30.066,36.808z"/>
	<path fill="#fff" d="M23.205,5.01c6.541,0,13.084,0,19.625,0c0.033,0,0.067,0,0.095,0c0.526,0.002,0.554,0.026,0.554,0.552
		c0,6.649,0,13.293,0,19.941c0,0.075-0.009,0.147,0,0.223c0.014,0.131-0.053,0.158-0.17,0.157c-0.451-0.005-0.906-0.008-1.356,0
		c-0.146,0.001-0.188-0.055-0.175-0.188c0.009-0.073,0-0.146,0-0.222c0-6.173,0-12.346,0-18.518c0-0.448,0.065-0.386-0.381-0.386
		c-12.219,0-24.44,0-36.66,0c-0.453,0-0.388-0.047-0.388,0.38c0,12.178,0,24.355,0,36.533c0,0.396,0,0.396,0.407,0.396
		c7.438,0,14.875,0,22.311,0c0.043,0,0.089,0,0.127,0c0.415,0.002,0.349-0.04,0.353,0.35c0.003,0.379-0.015,0.758,0.003,1.138
		c0.014,0.203-0.065,0.254-0.252,0.242c-0.23-0.016-0.46,0-0.691,0c-7.578,0-15.151,0-22.727,0c-0.208,0-0.42-0.005-0.631,0
		c-0.189,0-0.294-0.077-0.313-0.271c-0.012-0.105-0.029-0.209-0.029-0.314c0-13.137,0-26.275,0-39.411c0-0.031,0-0.062,0-0.093
		C2.916,5.068,2.972,5.01,3.422,5.01c5.383,0,10.764,0,16.147,0C20.782,5.01,21.994,5.01,23.205,5.01z"/>
	<path fill="#FF04FF" d="M30.066,36.808c0-2.748,0-5.497,0-8.246c0-0.299,0.152-0.446,0.437-0.443c0.536,0,1.072,0,1.608,0
		c0.356,0,0.495,0.109,0.54,0.46c0.013,0.103,0.03,0.219-0.004,0.312c-0.109,0.275-0.068,0.562-0.07,0.84
		c-0.007,4.109-0.013,8.218-0.016,12.325c0,0.596,0,0.596,0.595,0.596c1.315,0,2.635,0.002,3.951,0.002
		c0.384,0,0.486-0.058,0.571-0.428c0.146-0.689,0.284-1.38,0.401-2.069c0.05-0.336,0.187-0.645,0.244-0.977
		c0.124-0.789,0.357-1.551,0.503-2.335c0.086-0.503,0.233-0.987,0.343-1.485c0.084-0.432,0.176-0.859,0.268-1.293
		c0.096-0.439,0.169-0.886,0.276-1.318c0.104-0.376,0.13-0.768,0.208-1.146c0.104-0.495,0.228-0.979,0.336-1.472
		c0.129-0.558,0.246-1.126,0.381-1.687c0.065-0.28,0.155-0.333,0.446-0.333c0.663-0.005,1.326-0.005,1.989,0
		c0.365,0,0.519,0.162,0.57,0.523c0.108,0.651,0.221,1.301,0.37,1.947c0.096,0.417,0.178,0.841,0.271,1.253
		c0.123,0.559,0.232,1.126,0.344,1.688c0.073,0.385,0.152,0.775,0.268,1.158c0.112,0.38,0.14,0.783,0.249,1.17
		c0.204,0.735,0.278,1.5,0.46,2.244c0.119,0.509,0.2,1.03,0.314,1.541c0.143,0.609,0.279,1.225,0.397,1.839
		c0.14,0.717,0.309,1.436,0.438,2.155c0.088,0.486,0.202,0.966,0.312,1.449c0.062,0.291-0.023,0.429-0.312,0.432
		c-0.613,0.009-1.221-0.003-1.836,0.009c-0.174,0.001-0.269-0.075-0.331-0.23c-0.089-0.228-0.104-0.471-0.143-0.708
		c-0.16-1.018-0.377-2.023-0.594-3.027c-0.09-0.423-0.138-0.849-0.255-1.258c-0.152-0.521-0.248-1.058-0.371-1.585
		c-0.091-0.4-0.224-0.798-0.278-1.216c-0.095-0.694-0.265-1.38-0.4-2.071c-0.103-0.536-0.253-1.063-0.311-1.603
		c-0.015-0.136-0.019-0.267-0.201-0.259c-0.165,0-0.213,0.129-0.22,0.259c-0.063,0.679-0.247,1.341-0.356,2.017
		c-0.128,0.841-0.345,1.661-0.484,2.502c-0.114,0.672-0.265,1.338-0.384,2.008c-0.077,0.426-0.139,0.863-0.269,1.282
		c-0.072,0.22-0.129,0.445-0.144,0.676c-0.024,0.447-0.212,0.851-0.275,1.282c-0.069,0.459-0.17,0.905-0.26,1.359
		c-0.084,0.445-0.215,0.572-0.666,0.568c-0.543,0-1.092,0-1.642-0.005c-0.208-0.003-0.421,0.005-0.617-0.086
		c-0.042-0.019-0.115-0.026-0.152-0.007c-0.233,0.117-0.478,0.064-0.718,0.064c-1.791,0.008-3.582,0.008-5.368,0.008
		c-0.392,0-0.456-0.065-0.456-0.459c0-2.738,0-5.479,0-8.217C30.036,36.808,30.053,36.808,30.066,36.808z"/>
</g>
</svg>
