<svg version="1.1" id="Layer_1" xmlns="http://www.w3.org/2000/svg" xmlns:xlink="http://www.w3.org/1999/xlink" viewBox="0 0 648 216">
<style type="text/css">
	.st0{fill:#000;}
	.st1{fill:#fff;}
	.st2{fill:#fff;}
</style>
<g>
	<path class="st0" d="M190.57,108.21c0-44.17,0-88.35,0-132.52c0-0.25,0.02-0.5,0-0.74c-0.02-0.28-0.01-0.45,0.36-0.39
		c0.28,0.05,0.58,0.01,0.86,0.01c88.39,0,176.77,0,265.16,0c0.16,0,0.34,0.03,0.49-0.01c0.64-0.15,0.75,0.17,0.67,0.7
		c-0.03,0.16,0,0.33,0,0.49c0,88.39,0,176.77,0,265.16c0,1.19,0,1.19-1.16,1.19c-88.39,0-176.77,0-265.16,0
		c-1.22,0-1.22,0-1.22-1.25C190.57,196.64,190.57,152.43,190.57,108.21z M323.83,28.74c-4.74,0-9.49,0-14.23,0
		c-21.08,0-42.15,0-63.23,0c-1.76,0-1.98,0.22-2.02,1.98c0,0.12,0,0.25,0,0.37c0,51.43,0,102.87,0,154.3c0,0.41,0.07,0.82,0.11,1.23
		c0.08,0.77,0.49,1.08,1.23,1.06c0.82-0.01,1.65,0,2.47,0c29.66,0,59.31,0,88.97,0c0.91,0,1.82-0.04,2.72,0.01
		c0.73,0.04,1.02-0.15,0.99-0.95c-0.07-1.48-0.01-2.97-0.02-4.45c-0.02-1.53,0.25-1.36-1.38-1.38c-0.16,0-0.33,0-0.49,0
		c-29.12,0-58.24,0-87.36,0c-1.59,0-1.59,0-1.59-1.54c0-47.68,0-95.36,0-143.04c0-1.67-0.26-1.49,1.52-1.49
		c47.84,0,95.69,0,143.53,0c1.73,0,1.49-0.24,1.49,1.51c0.01,24.17,0,48.34,0,72.51c0,0.29,0.02,0.58,0,0.87
		c-0.05,0.52,0.12,0.74,0.68,0.73c1.77-0.03,3.55-0.02,5.32,0c0.45,0,0.71-0.1,0.66-0.61c-0.03-0.29,0-0.58,0-0.87
		c0-26.03,0-52.05,0-78.08c0-2.06-0.09-2.15-2.16-2.16c-0.12,0-0.25,0-0.37,0C375.06,28.74,349.44,28.74,323.83,28.74z
		 M350.69,153.24c-0.05,0-0.11,0-0.16,0c0,10.72,0,21.45,0,32.17c0,1.55,0.26,1.81,1.78,1.8c7.01,0,14.02,0,21.03-0.02
		c0.93,0,1.89,0.18,2.8-0.26c0.16-0.08,0.43-0.05,0.6,0.03c0.78,0.36,1.6,0.34,2.42,0.34c2.14,0.01,4.29,0.01,6.43,0.01
		c1.77,0,2.28-0.49,2.61-2.22c0.34-1.77,0.75-3.53,1.01-5.32c0.25-1.69,0.99-3.28,1.09-5.03c0.05-0.89,0.28-1.79,0.55-2.65
		c0.51-1.64,0.75-3.35,1.05-5.02c0.47-2.63,1.06-5.23,1.5-7.86c0.55-3.28,1.41-6.51,1.91-9.8c0.41-2.64,1.14-5.23,1.38-7.9
		c0.05-0.5,0.22-1,0.87-1.01c0.7-0.01,0.72,0.48,0.78,1.01c0.25,2.13,0.81,4.2,1.22,6.29c0.53,2.7,1.19,5.39,1.56,8.11
		c0.22,1.63,0.73,3.19,1.1,4.76c0.48,2.06,0.86,4.16,1.45,6.2c0.46,1.6,0.64,3.28,1,4.92c0.85,3.94,1.71,7.87,2.32,11.86
		c0.14,0.93,0.21,1.88,0.57,2.77c0.24,0.61,0.6,0.91,1.29,0.9c2.39-0.03,4.78,0,7.18-0.02c1.13-0.01,1.47-0.55,1.22-1.7
		c-0.42-1.89-0.87-3.77-1.21-5.67c-0.5-2.83-1.16-5.63-1.71-8.45c-0.46-2.4-1.01-4.8-1.56-7.19c-0.46-2-0.77-4.04-1.24-6.04
		c-0.7-2.91-1-5.9-1.8-8.78c-0.42-1.51-0.53-3.09-0.97-4.58c-0.44-1.5-0.76-3.02-1.05-4.54c-0.43-2.21-0.86-4.41-1.35-6.6
		c-0.36-1.64-0.68-3.29-1.05-4.92c-0.57-2.52-1.03-5.07-1.44-7.62c-0.22-1.39-0.82-2.04-2.25-2.05c-2.6-0.01-5.2,0-7.79,0
		c-1.14,0-1.48,0.22-1.74,1.31c-0.52,2.2-0.99,4.41-1.49,6.61c-0.43,1.92-0.91,3.83-1.31,5.75c-0.31,1.49-0.43,3.01-0.81,4.49
		c-0.44,1.7-0.72,3.44-1.09,5.16c-0.37,1.68-0.71,3.37-1.06,5.06c-0.41,1.94-0.99,3.85-1.34,5.82c-0.55,3.07-1.47,6.07-1.97,9.15
		c-0.21,1.3-0.74,2.5-0.96,3.81c-0.44,2.71-0.99,5.41-1.57,8.1c-0.31,1.45-0.71,1.69-2.23,1.69c-5.16,0-10.31,0-15.47-0.01
		c-2.33,0-2.33,0-2.33-2.34c0.02-16.08,0.04-32.17,0.07-48.25c0-1.1-0.15-2.21,0.27-3.29c0.14-0.36,0.07-0.82,0.02-1.23
		c-0.18-1.36-0.73-1.8-2.11-1.8c-2.1,0.01-4.2,0.01-6.31,0c-1.12,0-1.71,0.57-1.71,1.74C350.69,131.72,350.69,142.48,350.69,153.24z
		"/>
	<path class="st1" d="M323.83,28.74c25.61,0,51.23,0,76.84,0c0.12,0,0.25,0,0.37,0c2.06,0.01,2.16,0.1,2.16,2.16
		c0,26.03,0,52.05,0,78.08c0,0.29-0.02,0.58,0,0.87c0.05,0.51-0.2,0.62-0.66,0.61c-1.77-0.02-3.55-0.03-5.32,0
		c-0.56,0.01-0.73-0.21-0.68-0.73c0.03-0.29,0-0.58,0-0.87c0-24.17,0-48.34,0-72.51c0-1.75,0.25-1.51-1.49-1.51
		c-47.84,0-95.69,0-143.53,0c-1.78,0-1.52-0.18-1.52,1.49c0,47.68,0,95.36,0,143.04c0,1.54,0,1.54,1.59,1.54
		c29.12,0,58.24,0,87.36,0c0.16,0,0.33,0,0.49,0c1.62,0.02,1.36-0.15,1.38,1.38c0.01,1.48-0.05,2.97,0.02,4.45
		c0.04,0.8-0.26,0.99-0.99,0.95c-0.9-0.05-1.81-0.01-2.72-0.01c-29.66,0-59.31,0-88.97,0c-0.82,0-1.65-0.01-2.47,0
		c-0.74,0.01-1.15-0.29-1.23-1.06c-0.04-0.41-0.11-0.81-0.11-1.23c0-51.43,0-102.87,0-154.3c0-0.12,0-0.25,0-0.37
		c0.04-1.76,0.26-1.98,2.02-1.98c21.08,0,42.15,0,63.23,0C314.34,28.74,319.09,28.74,323.83,28.74z"/>
	<path class="st2" d="M350.69,153.24c0-10.76,0-21.53,0-32.29c0-1.17,0.59-1.75,1.71-1.74c2.1,0.01,4.2,0,6.31,0
		c1.38,0,1.93,0.44,2.11,1.8c0.05,0.4,0.12,0.87-0.02,1.23c-0.42,1.08-0.26,2.2-0.27,3.29c-0.03,16.08-0.05,32.17-0.07,48.25
		c0,2.34,0,2.34,2.33,2.34c5.16,0,10.31,0.01,15.47,0.01c1.51,0,1.91-0.23,2.23-1.69c0.58-2.69,1.12-5.39,1.57-8.1
		c0.21-1.31,0.75-2.51,0.96-3.81c0.49-3.09,1.41-6.08,1.97-9.15c0.35-1.97,0.93-3.87,1.34-5.82c0.35-1.68,0.7-3.37,1.06-5.06
		c0.37-1.72,0.65-3.46,1.09-5.16c0.39-1.48,0.5-3,0.81-4.49c0.4-1.93,0.88-3.83,1.31-5.75c0.5-2.2,0.96-4.41,1.49-6.61
		c0.26-1.1,0.6-1.31,1.74-1.31c2.6-0.01,5.2-0.01,7.79,0c1.43,0,2.03,0.65,2.25,2.05c0.41,2.55,0.86,5.1,1.44,7.62
		c0.37,1.64,0.69,3.29,1.05,4.92c0.49,2.19,0.92,4.4,1.35,6.6c0.29,1.51,0.61,3.04,1.05,4.54c0.44,1.49,0.55,3.07,0.97,4.58
		c0.8,2.89,1.1,5.87,1.8,8.78c0.48,2,0.79,4.04,1.24,6.04c0.55,2.39,1.09,4.79,1.56,7.19c0.55,2.82,1.2,5.62,1.71,8.45
		c0.34,1.9,0.79,3.79,1.21,5.67c0.25,1.14-0.09,1.68-1.22,1.7c-2.39,0.02-4.78-0.01-7.18,0.02c-0.69,0.01-1.05-0.29-1.29-0.9
		c-0.35-0.89-0.42-1.84-0.57-2.77c-0.62-3.98-1.47-7.92-2.32-11.86c-0.35-1.64-0.54-3.32-1-4.92c-0.59-2.04-0.97-4.14-1.45-6.2
		c-0.36-1.57-0.88-3.13-1.1-4.76c-0.36-2.72-1.03-5.41-1.56-8.11c-0.41-2.1-0.98-4.17-1.22-6.29c-0.06-0.53-0.08-1.02-0.78-1.01
		c-0.65,0.01-0.83,0.51-0.87,1.01c-0.24,2.67-0.97,5.26-1.38,7.9c-0.51,3.29-1.36,6.52-1.91,9.8c-0.44,2.63-1.03,5.24-1.5,7.86
		c-0.3,1.67-0.54,3.38-1.05,5.02c-0.27,0.86-0.5,1.76-0.55,2.65c-0.1,1.75-0.84,3.33-1.09,5.03c-0.27,1.79-0.67,3.54-1.01,5.32
		c-0.33,1.73-0.84,2.23-2.61,2.22c-2.14,0-4.29,0-6.43-0.01c-0.82-0.01-1.65,0.01-2.42-0.34c-0.17-0.08-0.44-0.11-0.6-0.03
		c-0.91,0.45-1.86,0.26-2.8,0.26c-7.01,0.02-14.02,0.02-21.03,0.02c-1.52,0-1.78-0.25-1.78-1.8c0-10.72,0-21.45,0-32.17
		C350.58,153.24,350.64,153.24,350.69,153.24z"/>
</g>
</svg>
